<svg width="1202" height="219" viewBox="0 0 1202 219" fill="none" xmlns="http://www.w3.org/2000/svg">
<path d="M239.525 10.8608C220.546 8.02881 201.281 5.7263 181.728 3.95337C120.891 -1.51792 57.4683 -1.47662 0.611816 7.63268L0.611859 218.539H1201.71V32.3393C1140.1 24.7328 1069.6 32.7682 1009.85 45.309C987.199 50.0613 965.017 55.4216 942.853 60.7791C893.244 72.7679 843.698 84.742 789.052 89.8543C693.402 98.7891 594.261 85.4444 505.333 66.962C474.306 60.5134 443.881 53.4183 413.466 46.3255C364.52 34.911 315.599 23.5025 264.234 14.8038C256.068 13.4143 247.832 12.1 239.525 10.8608Z" fill="#134A45"/>
</svg>
